<svg id="visual" viewBox="0 0 900 600" width="900" height="600" xmlns="http://www.w3.org/2000/svg" xmlns:xlink="http://www.w3.org/1999/xlink" version="1.1"><rect x="0" y="0" width="900" height="600" fill="#FFFFFF"></rect><defs><linearGradient id="grad1_0" x1="33.3%" y1="0%" x2="100%" y2="100%"><stop offset="20%" stop-color="#ffffff" stop-opacity="1"></stop><stop offset="80%" stop-color="#ffffff" stop-opacity="1"></stop></linearGradient></defs><defs><linearGradient id="grad2_0" x1="0%" y1="0%" x2="66.7%" y2="100%"><stop offset="20%" stop-color="#ffffff" stop-opacity="1"></stop><stop offset="80%" stop-color="#ffffff" stop-opacity="1"></stop></linearGradient></defs><g transform="translate(900, 0)"><path d="M0 243.4C-24.2 212.8 -48.4 182.1 -67.7 163.5C-87.1 144.9 -101.7 138.3 -130.8 130.8C-160 123.4 -203.7 115.1 -224.8 93.1C-246 71.2 -244.7 35.6 -243.4 0L0 0Z" fill="#ffec8e"></path></g><g transform="translate(0, 600)"><path d="M0 -243.4C35 -244.1 70 -244.8 93.1 -224.8C116.3 -204.9 127.6 -164.2 135.1 -135.1C142.5 -105.9 146.1 -88.3 163.5 -67.7C180.9 -47.1 212.2 -23.6 243.4 0L0 0Z" fill="#ffec8e"></path></g></svg>